<svg xmlns="http://www.w3.org/2000/svg" viewBox="0 0 120 120" role="img" aria-label="Логотип Старый фермер">
  <defs>
    <linearGradient id="g" x1="20" y1="8" x2="94" y2="112" gradientUnits="userSpaceOnUse">
      <stop stop-color="#7DBE66"/>
      <stop offset="1" stop-color="#2E6030"/>
    </linearGradient>
  </defs>
  <rect x="10" y="10" width="100" height="100" rx="32" fill="url(#g)"/>
  <path d="M24 70c12-18 27-29 46-34 15-4 29-3 42 2-9 12-20 22-36 28-19 8-35 9-52 4Z" fill="#F5D879"/>
  <path d="M37 73c7-24 22-41 44-51 3 23-1 42-15 57-9 10-20 14-33 17 1-8 2-15 4-23Z" fill="#FDF7E4"/>
  <path d="M44 83c13-10 23-20 32-37" stroke="#2E6030" stroke-width="6" stroke-linecap="round" fill="none"/>
  <circle cx="78" cy="74" r="8" fill="#B56A3C"/>
</svg>
